<?xml version="1.0" encoding="UTF-8" standalone="no"?>
<svg
   width="512px"
   height="512px"
   viewBox="0 0 512 512"
   version="1.1"
   id="svg10"
   sodipodi:docname="logo.svg"
   inkscape:version="1.1 (c68e22c387, 2021-05-23)"
   xmlns:inkscape="http://www.inkscape.org/namespaces/inkscape"
   xmlns:sodipodi="http://sodipodi.sourceforge.net/DTD/sodipodi-0.dtd"
   xmlns="http://www.w3.org/2000/svg"
   xmlns:svg="http://www.w3.org/2000/svg"
   xmlns:rdf="http://www.w3.org/1999/02/22-rdf-syntax-ns#"
   xmlns:cc="http://creativecommons.org/ns#"
   xmlns:dc="http://purl.org/dc/elements/1.1/">
  <defs
     id="defs14" />
  <sodipodi:namedview
     id="namedview12"
     pagecolor="#ffffff"
     bordercolor="#666666"
     borderopacity="1.0"
     inkscape:pageshadow="2"
     inkscape:pageopacity="0.0"
     inkscape:pagecheckerboard="0"
     showgrid="false"
     showguides="true"
     inkscape:zoom="1.625"
     inkscape:cx="173.84615"
     inkscape:cy="274.76923"
     inkscape:window-width="1920"
     inkscape:window-height="1017"
     inkscape:window-x="-8"
     inkscape:window-y="1072"
     inkscape:window-maximized="1"
     inkscape:current-layer="svg10" />
  <title
     id="title2">ionicons-v5-r</title>
  <rect
     x="48"
     y="144"
     width="416"
     height="288"
     rx="48"
     ry="48"
     style="fill:none;stroke:#ffffff;stroke-linejoin:round;stroke-width:32px"
     id="rect4" />
  <path
     d="M411.36,144V114A50,50,0,0,0,352,64.9L88.64,109.85A50,50,0,0,0,48,159v49"
     style="fill:none;stroke:#ffffff;stroke-linejoin:round;stroke-width:32px"
     id="path6" />
  <path
     id="path1636"
     style="fill:#ffffff;fill-opacity:1;fill-rule:nonzero;stroke:none;stroke-width:0.0378608"
     d="m 250.20351,270.54583 c -9.21221,-7.84053 -17.66504,-16.53796 -25.23963,-25.97832 -9.40793,6.96696 -19.4719,13.09367 -30.0935,18.25064 6.41885,10.11135 13.7996,19.54414 22.01924,28.18251 11.86553,-5.62765 23.01597,-12.51016 33.31389,-20.45483" />
  <path
     id="path1638"
     style="fill:#ffffff;fill-opacity:1;fill-rule:nonzero;stroke:none;stroke-width:0.0378608"
     d="m 210.42384,341.47449 c 13.37219,-3.62226 26.33101,-8.71486 38.30594,-15.11989 -12.1555,-7.5997 -23.41004,-16.51032 -33.52361,-26.57699 -10.2597,4.52006 -20.98918,8.14724 -32.09797,10.80544 7.9925,11.3064 17.02453,21.67789 27.31564,30.89144" />
  <path
     id="path1640"
     style="fill:#ffffff;fill-opacity:1;fill-rule:nonzero;stroke:none;stroke-width:0.0378608"
     d="m 256,322.24349 v -2.8e-4 c 12.21684,-7.27178 23.50734,-15.93514 33.67391,-25.75946 C 277.68042,290.59407 265.88719,284.431 256,277.70828 v 8.5e-4 c -9.88756,6.72272 -21.68042,12.88579 -33.67391,18.77547 10.16657,9.82432 21.45707,18.4873 33.67391,25.75908" />
  <path
     id="path1642"
     style="fill:#ffffff;fill-opacity:1;fill-rule:nonzero;stroke:none;stroke-width:0.0378608"
     d="m 239.20904,370.86643 c -10.85668,-6.13088 -21.0611,-13.27997 -30.46373,-21.35338 -6.00015,1.49268 -12.11501,2.68736 -18.3211,3.59803 0.45957,0.70696 0.97176,1.37491 1.45367,2.06559 3.97978,5.43793 15.53528,19.75582 26.88673,19.75582 14.01121,0 20.39635,-4.06795 20.39635,-4.06795 l 0.0481,0.002" />
  <path
     id="path1644"
     style="fill:#ffffff;fill-opacity:1;fill-rule:nonzero;stroke:none;stroke-width:0.0378608"
     d="m 251.27294,210.01367 c -3.66445,-4.59844 -7.09569,-9.38773 -10.32973,-14.31751 0,0 -19.02255,16.63074 -18.61219,32.98241 1.29315,1.89405 2.56094,3.80742 3.92375,5.64885 9.09222,-7.29565 17.46858,-15.43797 25.01817,-24.31375" />
  <path
     id="path1646"
     style="fill:#ffffff;fill-opacity:1;fill-rule:nonzero;stroke:none;stroke-width:0.0378608"
     d="m 256,205.58297 v -3.7e-4 c 2.41521,-3.08532 4.72517,-6.25735 6.98667,-9.46308 C 263.5424,191.00685 256,190 256,190 v 3.7e-4 c 0,0 -7.5424,1.00723 -6.98667,6.11951 2.26151,3.20611 4.57147,6.37777 6.98667,9.46309" />
  <path
     id="path1648"
     style="fill:#ffffff;fill-opacity:1;fill-rule:nonzero;stroke:none;stroke-width:0.0378608"
     d="m 201.97858,343.41209 c -7.08435,-6.6947 -13.57019,-13.99072 -19.54725,-21.70402 -0.0609,-0.0204 -0.1306,-0.0224 -0.17451,-0.0784 -0.52014,-0.66795 -1.21594,-0.15601 -1.25682,0.63539 1.13984,5.58561 4.00932,17.20024 8.5895,19.8342 5.30662,3.05199 11.01528,1.70699 12.38908,1.31281" />
  <path
     id="path1650"
     style="fill:#ffffff;fill-opacity:1;fill-rule:nonzero;stroke:none;stroke-width:0.0378608"
     d="m 191.70753,300.6686 c 6.18526,-1.85733 12.25129,-3.99221 18.13749,-6.48265 -7.18769,-7.75761 -13.68603,-16.14681 -19.51053,-25.01957 -0.10637,-0.11095 -0.21842,-0.24197 -0.34751,-0.43736 -1.18148,-1.78954 -3.87151,-1.07122 -4.01045,1.36962 -0.80708,8.95417 -2.15513,32.14367 5.731,30.56996" />
  <path
     id="path1652"
     style="fill:#ffffff;fill-opacity:1;fill-rule:nonzero;stroke:none;stroke-width:0.0378608"
     d="m 220.48062,238.80014 c -3.20223,-4.31975 -6.16141,-8.82353 -8.98963,-13.41591 -0.0746,-0.0568 -0.15294,-0.13783 -0.23963,-0.27756 -0.98955,-1.59606 -2.68851,-1.01179 -3.25484,-0.0939 -2.86569,5.71436 -8.76401,18.74555 -7.18655,26.43424 6.82995,-3.81348 13.41119,-8.02115 19.67065,-12.64686" />
  <path
     id="path1654"
     style="fill:#ffffff;fill-opacity:1;fill-rule:nonzero;stroke:none;stroke-width:0.0378608"
     d="m 261.79649,270.54545 c 10.29792,7.94429 21.44836,14.82681 33.31389,20.45445 8.21964,-8.63798 15.6004,-18.07116 22.01924,-28.18213 -10.62159,-5.15735 -20.68557,-11.28406 -30.0935,-18.25102 -7.57458,9.44075 -16.02742,18.1378 -25.23963,25.9787" />
  <path
     id="path1656"
     style="fill:#ffffff;fill-opacity:1;fill-rule:nonzero;stroke:none;stroke-width:0.0378608"
     d="m 328.8918,310.58229 c -11.10879,-2.65781 -21.83827,-6.28538 -32.09797,-10.80543 -10.11356,10.06666 -21.36811,18.97729 -33.52361,26.57698 11.97493,6.40504 24.93375,11.49801 38.30594,15.12027 10.29111,-9.21355 19.32315,-19.58542 27.31564,-30.89182" />
  <path
     id="path1658"
     style="fill:#ffffff;fill-opacity:1;fill-rule:nonzero;stroke:none;stroke-width:0.0378608"
     d="m 256,265.90952 c 9.24894,-7.7504 17.71086,-16.40581 25.27143,-25.81663 -9.1562,-7.33805 -17.0075,-14.12325 -25.27143,-21.95357 v 7.7e-4 c -8.26392,7.8303 -16.11523,14.61512 -25.27143,21.95317 7.56057,9.41121 16.02249,18.06623 25.27143,25.81665 v -2.9e-4" />
  <path
     id="path1660"
     style="fill:#ffffff;fill-opacity:1;fill-rule:nonzero;stroke:none;stroke-width:0.0378608"
     d="m 272.79096,370.86606 0.048,-0.002 c 0,0 6.38514,4.06795 20.39635,4.06795 11.35145,0 22.90695,-14.31826 26.88673,-19.75582 0.48191,-0.69105 0.9941,-1.359 1.45367,-2.06596 -6.20609,-0.91068 -12.32095,-2.10535 -18.3211,-3.59764 -9.40263,8.0734 -19.60705,15.22211 -30.46373,21.35338" />
  <path
     id="path1662"
     style="fill:#ffffff;fill-opacity:1;fill-rule:nonzero;stroke:none;stroke-width:0.0378608"
     d="m 256,371.29281 v -8.5e-4 c 13.93436,-6.4323 26.93557,-14.54963 38.71555,-24.12517 -13.60728,-4.07363 -27.0393,-8.56188 -38.71555,-14.06645 0,2.7e-4 0,2.7e-4 0,2.7e-4 v 2.9e-4 c -11.67663,5.50458 -25.10827,9.99245 -38.71555,14.06608 11.77999,9.57592 24.78119,17.69287 38.71555,24.12554" />
  <path
     id="path1664"
     style="fill:#ffffff;fill-opacity:1;fill-rule:nonzero;stroke:none;stroke-width:0.0378608"
     d="m 256,376.56791 v 8.6e-4 c 0,0 -19.97917,3.90549 -29.4102,2.99708 4.03353,2.23448 7.84599,3.42915 10.5402,4.1149 -0.007,0.002 -0.0144,0.005 -0.022,0.008 0.12341,0.0307 0.25061,0.0511 0.37439,0.081 1.13758,0.28135 2.07375,0.47863 2.67225,0.6104 l 0.0436,-0.0216 c 5.10599,1.0523 10.38423,1.64149 15.80178,1.64149 v -8.5e-4 c 5.41756,0 10.6958,-0.58919 15.80178,-1.6411 l 0.0436,0.0212 c 0.59851,-0.13177 1.53468,-0.32906 2.67225,-0.61002 0.12379,-0.0303 0.25098,-0.0507 0.37439,-0.0814 -0.008,-0.002 -0.0148,-0.005 -0.022,-0.008 2.69421,-0.68576 6.50705,-1.88005 10.5402,-4.11452 -9.43103,0.90802 -29.4102,-2.99748 -29.4102,-2.99748" />
  <path
     id="path1666"
     style="fill:#ffffff;fill-opacity:1;fill-rule:nonzero;stroke:none;stroke-width:0.0378608"
     d="m 285.74523,234.32665 c 1.36281,-1.84141 2.63061,-3.75441 3.92376,-5.64847 0.41036,-16.35204 -18.6122,-32.98239 -18.6122,-32.98239 -3.23404,4.92939 -6.66528,9.71867 -10.32973,14.31712 7.54959,8.87579 15.92596,17.01848 25.01817,24.31374" />
  <path
     id="path1668"
     style="fill:#ffffff;fill-opacity:1;fill-rule:nonzero;stroke:none;stroke-width:0.0378608"
     d="m 329.74319,321.62893 c -0.0439,0.0565 -0.11357,0.058 -0.17452,0.0784 -5.97706,7.7133 -12.4629,15.00932 -19.54724,21.70402 1.37379,0.39419 7.08245,1.73956 12.38907,-1.31281 4.58018,-2.63396 7.44966,-14.24859 8.5895,-19.8342 -0.0409,-0.7914 -0.73668,-1.30335 -1.25681,-0.63539" />
  <path
     id="path1670"
     style="fill:#ffffff;fill-opacity:1;fill-rule:nonzero;stroke:none;stroke-width:0.0378608"
     d="m 320.29247,300.66822 c 7.88613,1.57371 6.53808,-21.61617 5.731,-30.56996 -0.13894,-2.44084 -2.82897,-3.15954 -4.01045,-1.36961 -0.12909,0.19501 -0.24114,0.3264 -0.34751,0.43697 -5.8245,8.87313 -12.32284,17.26197 -19.51053,25.01956 5.8862,2.49083 11.95223,4.62571 18.13749,6.48304" />
  <path
     id="path1672"
     style="fill:#ffffff;fill-opacity:1;fill-rule:nonzero;stroke:none;stroke-width:0.0378608"
     d="m 304.00348,225.012 c -0.56633,-0.91749 -2.26567,-1.50176 -3.25484,0.0939 -0.0867,0.13972 -0.16505,0.22076 -0.23963,0.27755 -2.82822,4.59277 -5.7874,9.09655 -8.98962,13.41592 6.25945,4.62609 12.8407,8.83337 19.67064,12.64686 1.57746,-7.6883 -4.32086,-20.7195 -7.18655,-26.43424" />
  <metadata
     id="metadata1283">
    <rdf:RDF>
      <cc:Work
         rdf:about="">
        <dc:title>ionicons-v5-r</dc:title>
      </cc:Work>
    </rdf:RDF>
  </metadata>
</svg>
