<?xml version="1.0" encoding="UTF-8" standalone="no"?>
<svg
   xmlns:dc="http://purl.org/dc/elements/1.1/"
   xmlns:cc="http://creativecommons.org/ns#"
   xmlns:rdf="http://www.w3.org/1999/02/22-rdf-syntax-ns#"
   xmlns:svg="http://www.w3.org/2000/svg"
   xmlns="http://www.w3.org/2000/svg"
   xmlns:sodipodi="http://sodipodi.sourceforge.net/DTD/sodipodi-0.dtd"
   xmlns:inkscape="http://www.inkscape.org/namespaces/inkscape"
   inkscape:version="1.0 (4035a4fb49, 2020-05-01)"
   sodipodi:docname="Pinecone.svg"
   viewBox="0 0 532.00003 693.00003"
   height="693"
   width="532"
   xml:space="preserve"
   id="svg1622"
   version="1.1"><metadata
     id="metadata1628"><rdf:RDF><cc:Work
         rdf:about=""><dc:format>image/svg+xml</dc:format><dc:type
           rdf:resource="http://purl.org/dc/dcmitype/StillImage" /><dc:title></dc:title></cc:Work></rdf:RDF></metadata><defs
     id="defs1626" /><sodipodi:namedview
     inkscape:current-layer="g1632"
     inkscape:window-maximized="1"
     inkscape:window-y="-8"
     inkscape:window-x="-8"
     inkscape:cy="315.95945"
     inkscape:cx="113.62894"
     inkscape:zoom="1.2900001"
     showgrid="false"
     id="namedview1624"
     inkscape:window-height="1027"
     inkscape:window-width="1920"
     inkscape:pageshadow="2"
     inkscape:pageopacity="0"
     guidetolerance="10"
     gridtolerance="10"
     objecttolerance="10"
     borderopacity="1"
     bordercolor="#666666"
     pagecolor="#ffffff" /><g
     transform="matrix(1.3333333,0,0,-1.3333333,0,1333.3333)"
     inkscape:label="ink_ext_XXXXXX"
     inkscape:groupmode="layer"
     id="g1630"><g
       transform="matrix(0.1,0,0,0.1,3.488372,-3.7861537e-7)"
       id="g1632"><path
         id="path1636"
         style="fill:#1a1b1b;fill-opacity:1;fill-rule:nonzero;stroke:none"
         d="m 1806.1824,7867.0267 c -243.35,207.06 -466.64,436.75 -666.73,686.06 -248.51997,-183.99 -514.36997,-345.79 -794.94997,-481.98 169.56,-267.03 364.53,-516.14 581.66,-744.27 313.43997,148.62 607.98997,330.38 880.01997,540.19" /><path
         id="path1638"
         style="fill:#1a1b1b;fill-opacity:1;fill-rule:nonzero;stroke:none"
         d="m 755.36243,5993.8767 c 353.23997,95.66 695.55997,230.15 1011.88997,399.3 -321.1,200.7 -618.4,436.02 -885.55997,701.87 -271.02,-119.37 -554.45,-215.16 -847.899995,-285.36 211.129995,-298.59 449.719995,-572.49 721.569995,-815.81" /><path
         id="path1640"
         style="fill:#1a1b1b;fill-opacity:1;fill-rule:nonzero;stroke:none"
         d="m 1959.3024,6501.7467 v 0.01 c 322.72,192.04 620.97,420.83 889.53,680.28 -316.82,155.54 -628.35,318.3 -889.53,495.84 v -0.02 c -261.19,-177.54 -572.71,-340.3 -889.53,-495.84 268.56,-259.45 566.81,-488.23 889.53,-680.27" /><path
         id="path1642"
         style="fill:#1a1b1b;fill-opacity:1;fill-rule:nonzero;stroke:none"
         d="m 1515.7524,5217.6667 c -286.79,161.91 -556.34997,350.71 -804.72997,563.92 -158.5,-39.42 -320.03,-70.97 -483.97,-95.02 12.14,-18.67 25.67,-36.31 38.4,-54.55 105.13,-143.61 410.38,-521.73 710.24,-521.73 370.11997,0 538.78997,107.43 538.78997,107.43 l 1.27,-0.05" /><path
         id="path1644"
         style="fill:#1a1b1b;fill-opacity:1;fill-rule:nonzero;stroke:none"
         d="m 1834.4324,9465.6167 c -96.8,121.44 -187.44,247.92 -272.87,378.11 0,0 -502.5,-439.2 -491.66,-871.03 34.16,-50.02 67.65,-100.55 103.65,-149.18 240.18,192.67 461.45,407.7 660.88,642.1" /><path
         id="path1646"
         style="fill:#1a1b1b;fill-opacity:1;fill-rule:nonzero;stroke:none"
         d="m 1959.3024,9582.6267 v 0.01 c 63.8,81.48 124.82,165.25 184.56,249.91 14.68,135.02 -184.56,161.61 -184.56,161.61 v -0.01 c 0,0 -199.24,-26.6 -184.56,-161.61 59.74,-84.67 120.76,-168.43 184.56,-249.91" /><path
         id="path1648"
         style="fill:#1a1b1b;fill-opacity:1;fill-rule:nonzero;stroke:none"
         d="m 532.27243,5942.7067 c -187.14,176.8 -358.47,369.48 -516.359995,573.18 -1.61,0.54 -3.45,0.59 -4.61,2.07 -13.7399998,17.64 -32.12,4.12 -33.2,-16.78 30.1100002,-147.51 105.909995,-454.24 226.899995,-523.8 140.18,-80.6 290.98,-45.08 327.27,-34.67" /><path
         id="path1650"
         style="fill:#1a1b1b;fill-opacity:1;fill-rule:nonzero;stroke:none"
         d="m 260.95243,7071.5167 c 163.39,49.05 323.63,105.43 479.12,171.2 -189.87,204.87 -361.53,426.42 -515.39,660.74 -2.81,2.93 -5.77,6.39 -9.18,11.55 -31.21,47.26 -102.27,28.29 -105.94,-36.17 -21.32,-236.47 -56.929995,-848.88 151.39,-807.32" /><path
         id="path1652"
         style="fill:#1a1b1b;fill-opacity:1;fill-rule:nonzero;stroke:none"
         d="m 1021.0224,8705.3967 c -84.58997,114.08 -162.75997,233.02 -237.46997,354.3 -1.97,1.5 -4.04,3.64 -6.33,7.33 -26.14,42.15 -71.02,26.72 -85.98,2.48 -75.7,-150.91 -231.51,-495.05 -189.84,-698.1 180.42,100.71 354.27,211.83 519.61997,333.99" /><path
         id="path1654"
         style="fill:#1a1b1b;fill-opacity:1;fill-rule:nonzero;stroke:none"
         d="m 2112.4224,7867.0367 c 272.03,-209.8 566.58,-391.56 880.02,-540.18 217.13,228.12 412.1,477.24 581.66,744.26 -280.58,136.2 -546.43,298 -794.95,481.99 -200.09,-249.32 -423.38,-479 -666.73,-686.07" /><path
         id="path1656"
         style="fill:#1a1b1b;fill-opacity:1;fill-rule:nonzero;stroke:none"
         d="m 3884.8124,6809.7067 c -293.45,70.19 -576.88,165.99 -847.9,285.36 -267.16,-265.85 -564.46,-501.17 -885.56,-701.87 316.33,-169.15 658.65,-303.65 1011.89,-399.31 271.85,243.32 510.44,517.23 721.57,815.82" /><path
         id="path1658"
         style="fill:#1a1b1b;fill-opacity:1;fill-rule:nonzero;stroke:none"
         d="m 1959.3024,7989.4667 c 244.32,204.68 467.85,433.26 667.57,681.79 -241.87,193.79 -449.27,372.98 -667.57,579.77 v -0.02 c -218.3,-206.79 -425.7,-385.97 -667.57,-579.76 199.72,-248.54 423.25,-477.11 667.57,-681.79 v 0.01" /><path
         id="path1660"
         style="fill:#1a1b1b;fill-opacity:1;fill-rule:nonzero;stroke:none"
         d="m 2402.8524,5217.6767 1.27,0.05 c 0,0 168.67,-107.43 538.79,-107.43 299.86,0 605.11,378.13 710.24,521.73 12.73,18.25 26.26,35.89 38.4,54.56 -163.94,24.05 -325.47,55.6 -483.97,95.01 -248.38,-213.21 -517.94,-402 -804.73,-563.92" /><path
         id="path1662"
         style="fill:#1a1b1b;fill-opacity:1;fill-rule:nonzero;stroke:none"
         d="m 1959.3024,5206.4067 v 0.02 c 368.09,169.87 711.53,384.24 1022.71,637.12 -359.45,107.58 -714.27,226.11 -1022.71,371.48 0,-0.01 0,-0.01 0,-0.01 v -0.01 c -308.45,-145.37 -663.26,-263.89 -1022.70997,-371.47 311.17997,-252.89 654.61997,-467.25 1022.70997,-637.13" /><path
         id="path1664"
         style="fill:#1a1b1b;fill-opacity:1;fill-rule:nonzero;stroke:none"
         d="m 1959.3024,5067.0967 v -0.02 c 0,0 -527.77,-103.14 -776.9,-79.15 106.55,-59.01 207.26,-90.56 278.43,-108.67 -0.19,-0.06 -0.38,-0.14 -0.58,-0.2 3.26,-0.81 6.62,-1.35 9.89,-2.14 30.05,-7.43 54.78,-12.64 70.59,-16.12 l 1.15,0.57 c 134.88,-27.79 274.31,-43.35 417.42,-43.35 v 0.02 c 143.11,0 282.54,15.56 417.42,43.34 l 1.15,-0.56 c 15.81,3.48 40.54,8.69 70.59,16.11 3.27,0.8 6.63,1.34 9.89,2.15 -0.2,0.06 -0.39,0.13 -0.58,0.2 71.17,18.11 171.89,49.65 278.43,108.66 -249.13,-23.98 -776.9,79.16 -776.9,79.16" /><path
         id="path1666"
         style="fill:#1a1b1b;fill-opacity:1;fill-rule:nonzero;stroke:none"
         d="m 2745.0524,8823.5367 c 36,48.63 69.49,99.15 103.65,149.17 10.84,431.84 -491.66,871.03 -491.66,871.03 -85.43,-130.18 -176.07,-256.66 -272.87,-378.1 199.43,-234.4 420.7,-449.44 660.88,-642.1" /><path
         id="path1668"
         style="fill:#1a1b1b;fill-opacity:1;fill-rule:nonzero;stroke:none"
         d="m 3907.3024,6517.9767 c -1.16,-1.49 -3,-1.53 -4.61,-2.07 -157.89,-203.7 -329.22,-396.38 -516.36,-573.18 36.29,-10.41 187.09,-45.94 327.27,34.67 120.99,69.56 196.79,376.29 226.9,523.8 -1.08,20.9 -19.46,34.42 -33.2,16.78" /><path
         id="path1670"
         style="fill:#1a1b1b;fill-opacity:1;fill-rule:nonzero;stroke:none"
         d="m 3657.6524,7071.5267 c 208.32,-41.56 172.71,570.86 151.39,807.32 -3.67,64.46 -74.73,83.44 -105.94,36.17 -3.41,-5.15 -6.37,-8.62 -9.18,-11.54 -153.86,-234.33 -325.52,-455.87 -515.39,-660.74 155.49,-65.78 315.73,-122.16 479.12,-171.21" /><path
         id="path1672"
         style="fill:#1a1b1b;fill-opacity:1;fill-rule:nonzero;stroke:none"
         d="m 3227.3624,9069.5267 c -14.96,24.23 -59.85,39.66 -85.98,-2.48 -2.29,-3.69 -4.36,-5.83 -6.33,-7.33 -74.71,-121.29 -152.88,-240.23 -237.47,-354.3 165.35,-122.17 339.2,-233.28 519.62,-333.99 41.67,203.04 -114.14,547.18 -189.84,698.1" /></g></g></svg>
